Genre:Crime | Drama | Thriller
Language:English
IMDb:http://uk.imdb.com/title/tt1764234/
Source:nLiBRA Thanks
Encoder:Tony

Format/Info : Audio Video Interleave
File size : 1.13 GiB
Duration : 1h 37mn
Overall bit rate : 1 667 Kbps

Video
ID : 0
Format : MPEG-4 Visual
Format profile : Simple@L5
Format settings, BVOP : No
Format settings, QPel : No
Format settings, GMC : No warppoints
Format settings, Matrix : Default (H.263)
Codec ID : XVID
Codec ID/Hint : XviD
Duration : 1h 37mn
Bit rate : 1 273 Kbps
Width : 640 pixels
Height : 352 pixels
Display aspect ratio : 16:9
Frame rate : 23.976 fps
Color space : YUV
Chroma subsampling : 4:2:0
Bit depth : 8 bits
Scan type : Progressive
Compression mode : Lossy
Bits/(Pixel*Frame) : 0.236
Stream size : 886 MiB (76%)
Writing library : XviD 64

Audio
ID : 1
Format : AC-3
Format/Info : Audio Coding 3
Mode extension : CM (complete main)
Codec ID : 2000
Duration : 1h 37mn
Bit rate mode : Constant
Bit rate : 384 Kbps
Channel(s) : 6 channels
Channel positions : Front: L C R, Side: L R, LFE
Sampling rate : 48.0 KHz
Bit depth : 16 bits
Compression mode : Lossy
Stream size : 267 MiB (23%)
Alignment : Split accross interleaves
Interleave, duration : 42 ms (1.00 video frame)
Interleave, preload duration : 500 ms

Plot:
Jackie Cogan is an enforcer hired to restore order after three dumb guys rob a Mob protected card game, causing the local criminal economy to collapse.
 
http://lookpic.com/O/i2/903/5CoMOlbg.png
 
http://lookpic.com/O/i2/635/w8gtDMWa.png
 
http://lookpic.com/O/i2/586/KESJbQMk.png
 
http://lookpic.com/O/i2/881/XK6XaUWx.png
 
http://lookpic.com/O/i2/1712/pTMcpwSq.png

Greets:
 CRYS,INSPiRAL,IMAGINE,LKRG,ADTRG,FXG,3Li,FLAWL3SS,CrEwSaDe,TA,iLLUSiON,EMBER,HOPE,GooN,BBnRG,NOGRP,ETRG,BHRG,iLLUMiNATi,MiSTERE.ViSiON,DTRG SAFCuk009,LU,TheFalcon007,MYSTiC,PrisM,Noir,WBZ,LAP,Rx,Kingdom,SAFCuk009+Fabreezy,HDLiTE,TWiZTED,ETRG.ELEKTRI4KA,MAGNAT,CM8
                And to all the other p2p grps past and present 
 


Make sure its a real Feel-Free release @
Thanks to all who promotes release Feel-Free !!!